<svg version="1.1" id="Layer_1" xmlns="http://www.w3.org/2000/svg" xmlns:xlink="http://www.w3.org/1999/xlink" x="0px" y="0px"
	 width="100%" viewBox="0 0 927 1034" enable-background="new 0 0 927 1034" xml:space="preserve">
<path fill="#FFFFFF" opacity="1.000000" stroke="none" 
	d="
M619.000000,1035.000000 
	C412.692871,1035.000000 206.885773,1035.000000 1.039327,1035.000000 
	C1.039327,690.403442 1.039327,345.806915 1.039327,1.105180 
	C309.890503,1.105180 618.781006,1.105180 927.835815,1.105180 
	C927.835815,345.666595 927.835815,690.333313 927.835815,1035.000000 
	C825.140137,1035.000000 722.320068,1035.000000 619.000000,1035.000000 
M538.833191,925.826172 
	C538.833191,947.740295 538.833191,969.654358 538.833191,991.748596 
	C569.672791,991.748596 600.032227,991.748596 630.916260,991.748596 
	C630.916260,987.046265 630.916260,982.595276 631.700134,978.130371 
	C661.388367,986.213074 691.529358,987.765015 721.748840,982.616028 
	C771.312195,974.171143 813.164673,951.088501 845.764282,912.730347 
	C890.315918,860.308838 906.479309,799.513611 892.215149,732.371582 
	C877.011963,660.809937 834.042419,610.502869 766.893738,581.534241 
	C731.879700,566.428833 695.046204,562.529968 657.311096,567.924927 
	C648.448914,569.191895 639.693298,571.204407 630.849915,571.960876 
	C630.849915,437.721069 630.849915,303.481262 630.849915,168.859299 
	C650.227722,168.859299 668.950195,168.859299 688.388611,168.859299 
	C654.051636,121.299347 620.144531,74.334755 585.988831,27.025887 
	C551.628052,74.636452 517.791992,121.520027 483.335724,169.262939 
	C502.521942,169.262939 520.575134,169.262939 538.834839,169.262939 
	C538.834839,171.565857 538.834839,173.384659 538.834839,175.203476 
	C538.834229,318.697266 538.832458,462.191071 538.836548,605.684875 
	C538.836792,612.516785 538.889526,619.348755 538.554810,626.715515 
	C528.891602,638.985840 519.231750,651.258911 509.548553,663.513428 
	C509.259827,663.878784 508.725098,664.049744 508.266113,663.335938 
	C508.266113,553.623718 508.266113,443.911560 508.266113,334.207916 
	C477.212006,334.207916 446.820404,334.207916 416.334686,334.207916 
	C416.334686,553.522034 416.334686,772.523254 416.334686,991.683228 
	C446.986115,991.683228 477.389587,991.683228 508.321411,991.683228 
	C508.321411,956.502808 508.321411,921.561707 508.828613,887.094849 
	C518.869751,899.688721 528.910889,912.282593 538.833191,925.826172 
M307.507996,991.921143 
	C333.582581,991.921143 359.657135,991.921143 385.533447,991.921143 
	C385.533447,829.530945 385.533447,667.852783 385.533447,506.360657 
	C354.747101,506.360657 324.332550,506.360657 293.951202,506.360657 
	C293.951202,668.270264 293.951202,829.835938 293.951202,991.922180 
	C298.271881,991.922180 302.391510,991.922180 307.507996,991.921143 
M171.104034,706.500000 
	C171.104034,801.565308 171.104034,896.630615 171.104034,991.629639 
	C202.173065,991.629639 232.586716,991.629639 263.006470,991.629639 
	C263.006470,887.085571 263.006470,782.851257 263.006470,678.399658 
	C232.330139,678.399658 201.928879,678.399658 171.104034,678.399658 
	C171.104034,687.587463 171.104034,696.543701 171.104034,706.500000 
M48.776302,989.343628 
	C48.530006,993.272278 51.531971,991.885559 53.307343,991.890381 
	C81.303177,991.966553 109.299271,991.948730 137.295303,991.939148 
	C138.405563,991.938782 139.515808,991.807251 140.623688,991.736938 
	C140.623688,936.326050 140.623688,881.262085 140.623688,826.186523 
	C109.914101,826.186523 79.504723,826.186523 48.772167,826.186523 
	C48.772167,880.440002 48.772167,934.403259 48.776302,989.343628 
z"/>
<path fill="#09471B" opacity="1.000000" stroke="none" 
	d="
M508.321411,886.620605 
	C508.321411,921.561707 508.321411,956.502808 508.321411,991.683228 
	C477.389587,991.683228 446.986115,991.683228 416.334686,991.683228 
	C416.334686,772.523254 416.334686,553.522034 416.334686,334.207916 
	C446.820404,334.207916 477.212006,334.207916 508.266113,334.207916 
	C508.266113,443.911560 508.266113,553.623718 508.158813,664.137451 
	C507.483459,666.303101 507.059875,667.750854 506.326080,669.019165 
	C491.390533,694.835083 482.003387,722.441650 478.750763,752.171143 
	C473.716919,798.181885 482.951569,841.112427 505.829803,881.229980 
	C506.806885,882.943298 507.497406,884.820007 508.321411,886.620605 
z"/>
<path fill="#F69035" opacity="1.000000" stroke="none" 
	d="
M508.575012,886.857727 
	C507.497406,884.820007 506.806885,882.943298 505.829803,881.229980 
	C482.951569,841.112427 473.716919,798.181885 478.750763,752.171143 
	C482.003387,722.441650 491.390533,694.835083 506.326080,669.019165 
	C507.059875,667.750854 507.483459,666.303101 508.178284,664.625122 
	C508.725098,664.049744 509.259827,663.878784 509.548553,663.513428 
	C519.231750,651.258911 528.891602,638.985840 539.082275,626.379333 
	C540.748352,625.075562 541.938843,624.162231 543.017883,623.132202 
	C558.657288,608.204163 576.093933,595.773254 595.741211,586.778931 
	C607.181396,581.541748 619.155029,577.470032 630.888672,572.873901 
	C639.693298,571.204407 648.448914,569.191895 657.311096,567.924927 
	C695.046204,562.529968 731.879700,566.428833 766.893738,581.534241 
	C834.042419,610.502869 877.011963,660.809937 892.215149,732.371582 
	C906.479309,799.513611 890.315918,860.308838 845.764282,912.730347 
	C813.164673,951.088501 771.312195,974.171143 721.748840,982.616028 
	C691.529358,987.765015 661.388367,986.213074 630.966614,977.983032 
	C600.898621,969.054016 574.247437,955.279175 550.965942,935.234985 
	C546.958740,931.785095 542.956543,928.329407 538.952026,924.876404 
	C528.910889,912.282593 518.869751,899.688721 508.575012,886.857727 
M796.984070,895.519165 
	C811.813293,881.677856 824.177734,865.983521 832.972046,847.610535 
	C842.074951,828.593079 847.581909,808.738770 849.247009,787.563782 
	C850.459412,772.146423 849.026123,757.163330 846.166321,742.185791 
	C842.414795,722.538025 834.586792,704.534790 823.896729,687.652588 
	C809.464844,664.861023 790.270874,646.895508 767.033630,633.753479 
	C733.214172,614.626404 696.524475,608.625610 658.337830,615.320068 
	C629.785278,620.325623 604.093872,632.450623 581.972046,651.537354 
	C562.835510,668.048218 548.135803,687.788269 537.927734,710.993469 
	C525.397766,739.476990 522.363281,769.215637 526.286621,799.669983 
	C528.650269,818.017029 535.025757,835.246704 543.648071,851.772888 
	C559.230103,881.638672 582.199524,904.022705 611.617798,919.660706 
	C640.794067,935.170105 672.114990,940.648438 705.068542,937.126892 
	C718.680420,935.672302 731.763489,932.501465 744.554749,927.768799 
	C763.958984,920.589233 781.056091,909.683167 796.984070,895.519165 
z"/>
<path fill="#09471B" opacity="1.000000" stroke="none" 
	d="
M630.869263,572.417358 
	C619.155029,577.470032 607.181396,581.541748 595.741211,586.778931 
	C576.093933,595.773254 558.657288,608.204163 543.017883,623.132202 
	C541.938843,624.162231 540.748352,625.075562 539.263794,626.111938 
	C538.889526,619.348755 538.836792,612.516785 538.836548,605.684875 
	C538.832458,462.191071 538.834229,318.697266 538.834839,175.203476 
	C538.834839,173.384659 538.834839,171.565857 538.834839,169.262939 
	C520.575134,169.262939 502.521942,169.262939 483.335724,169.262939 
	C517.791992,121.520027 551.628052,74.636452 585.988831,27.025887 
	C620.144531,74.334755 654.051636,121.299347 688.388611,168.859299 
	C668.950195,168.859299 650.227722,168.859299 630.849915,168.859299 
	C630.849915,303.481262 630.849915,437.721069 630.869263,572.417358 
z"/>
<path fill="#09471B" opacity="1.000000" stroke="none" 
	d="
M307.009552,991.921631 
	C302.391510,991.922180 298.271881,991.922180 293.951202,991.922180 
	C293.951202,829.835938 293.951202,668.270264 293.951202,506.360657 
	C324.332550,506.360657 354.747101,506.360657 385.533447,506.360657 
	C385.533447,667.852783 385.533447,829.530945 385.533447,991.921143 
	C359.657135,991.921143 333.582581,991.921143 307.009552,991.921631 
z"/>
<path fill="#09471B" opacity="1.000000" stroke="none" 
	d="
M171.104034,706.000000 
	C171.104034,696.543701 171.104034,687.587463 171.104034,678.399658 
	C201.928879,678.399658 232.330139,678.399658 263.006470,678.399658 
	C263.006470,782.851257 263.006470,887.085571 263.006470,991.629639 
	C232.586716,991.629639 202.173065,991.629639 171.104034,991.629639 
	C171.104034,896.630615 171.104034,801.565308 171.104034,706.000000 
z"/>
<path fill="#09471B" opacity="1.000000" stroke="none" 
	d="
M48.774235,988.855103 
	C48.772167,934.403259 48.772167,880.440002 48.772167,826.186523 
	C79.504723,826.186523 109.914101,826.186523 140.623688,826.186523 
	C140.623688,881.262085 140.623688,936.326050 140.623688,991.736938 
	C139.515808,991.807251 138.405563,991.938782 137.295303,991.939148 
	C109.299271,991.948730 81.303177,991.966553 53.307343,991.890381 
	C51.531971,991.885559 48.530006,993.272278 48.774235,988.855103 
z"/>
<path fill="#0C471A" opacity="1.000000" stroke="none" 
	d="
M538.892578,925.351318 
	C542.956543,928.329407 546.958740,931.785095 550.965942,935.234985 
	C574.247437,955.279175 600.898621,969.054016 630.574707,977.989990 
	C630.916260,982.595276 630.916260,987.046265 630.916260,991.748596 
	C600.032227,991.748596 569.672791,991.748596 538.833191,991.748596 
	C538.833191,969.654358 538.833191,947.740295 538.892578,925.351318 
z"/>
<path fill="#FABC35" opacity="1.000000" stroke="none" 
	d="
M796.732300,895.768799 
	C781.056091,909.683167 763.958984,920.589233 744.554749,927.768799 
	C731.763489,932.501465 718.680420,935.672302 705.068542,937.126892 
	C672.114990,940.648438 640.794067,935.170105 611.617798,919.660706 
	C582.199524,904.022705 559.230103,881.638672 543.648071,851.772888 
	C535.025757,835.246704 528.650269,818.017029 526.286621,799.669983 
	C522.363281,769.215637 525.397766,739.476990 537.927734,710.993469 
	C548.135803,687.788269 562.835510,668.048218 581.972046,651.537354 
	C604.093872,632.450623 629.785278,620.325623 658.337830,615.320068 
	C696.524475,608.625610 733.214172,614.626404 767.033630,633.753479 
	C790.270874,646.895508 809.464844,664.861023 823.896729,687.652588 
	C834.586792,704.534790 842.414795,722.538025 846.166321,742.185791 
	C849.026123,757.163330 850.459412,772.146423 849.247009,787.563782 
	C847.581909,808.738770 842.074951,828.593079 832.972046,847.610535 
	C824.177734,865.983521 811.813293,881.677856 796.732300,895.768799 
M619.036743,706.802917 
	C616.000305,717.907532 616.243225,729.158630 618.067566,740.354614 
	C620.700500,756.513123 628.096985,769.909058 644.079712,775.830627 
	C660.687805,781.983765 677.880981,786.544373 694.749207,792.014282 
	C705.018799,795.344421 714.965698,799.250183 722.851868,807.249939 
	C738.484619,823.108032 729.016418,844.064636 713.664490,849.274353 
	C695.100708,855.574158 676.729065,854.266968 658.548157,848.150635 
	C650.043274,845.289490 643.945862,839.736694 642.797729,830.067932 
	C642.611572,828.500122 641.627930,826.938904 640.730469,825.558289 
	C635.703125,817.824829 623.258545,817.377930 618.297058,826.376709 
	C616.132690,830.302368 616.771973,836.558105 617.873535,841.357422 
	C621.623657,857.696228 632.857910,867.533813 648.112000,873.044556 
	C651.904053,874.414490 653.302673,876.178467 653.093506,880.191711 
	C652.755615,886.672363 652.890930,893.186218 653.039124,899.681213 
	C653.193787,906.457092 659.593262,912.752686 666.264465,912.957153 
	C673.120483,913.167358 679.673706,906.973694 679.976807,899.882812 
	C680.104736,896.889038 679.980408,893.885132 680.003235,890.886047 
	C680.098633,878.374268 678.801697,880.357910 690.588928,880.927063 
	C693.197876,881.053040 694.105652,881.976929 694.041565,884.512146 
	C693.923584,889.174561 693.914429,893.844727 694.035400,898.507141 
	C694.242310,906.484192 700.560791,913.277161 707.657410,912.911804 
	C714.101868,912.580078 721.636902,906.842651 721.072144,898.360535 
	C720.718628,893.052124 721.401978,887.663147 720.896545,882.379578 
	C720.388367,877.067566 722.875244,875.048584 727.327148,872.875732 
	C745.626099,863.944519 757.081116,848.241028 757.878784,827.367920 
	C758.791931,803.472229 746.038940,787.326233 726.177551,776.151428 
	C707.014648,765.369629 685.577820,760.848328 664.658142,755.076782 
	C653.863342,752.098572 645.585632,747.192688 644.251404,735.053406 
	C643.798828,730.934998 643.992126,726.738525 644.000000,722.577881 
	C644.022644,710.619934 649.728760,703.030518 660.880249,698.824890 
	C670.892273,695.048950 681.227661,695.716370 691.449280,696.180603 
	C697.621521,696.460938 703.981079,697.897156 709.775391,700.086975 
	C720.790833,704.250000 726.184204,713.250244 728.797302,724.440857 
	C730.355591,731.114380 737.765198,735.216187 744.196167,733.777649 
	C750.921204,732.273193 756.140442,725.283752 754.876526,718.626709 
	C751.581116,701.269775 743.172485,686.795105 727.075989,678.934448 
	C718.575256,674.783020 715.891907,669.565002 717.018127,661.076660 
	C717.192078,659.765381 717.573608,658.412537 717.406982,657.138000 
	C716.881897,653.120239 717.037048,648.675354 715.286133,645.230774 
	C712.242249,639.242310 705.697144,637.345215 699.382812,639.365112 
	C693.592712,641.217224 691.004761,645.264771 690.983765,652.508545 
	C690.977966,654.507996 690.980713,656.507507 690.980591,658.506958 
	C690.979858,669.337402 690.758911,669.455505 679.756348,669.044983 
	C676.980347,668.941345 675.886536,668.102112 675.977112,665.271484 
	C676.131531,660.444458 676.071777,655.607788 675.996948,650.776794 
	C675.915833,645.537781 672.755676,640.737976 667.789612,639.540649 
	C657.622559,637.089294 650.188110,640.734863 649.113770,652.535400 
	C648.572083,658.484680 648.871704,664.528687 649.076599,670.520081 
	C649.175781,673.420776 648.111511,674.891296 645.594116,676.327942 
	C641.015991,678.940491 636.518982,681.836792 632.461853,685.188293 
	C625.861511,690.640808 622.575562,698.415894 619.036743,706.802917 
z"/>
<path fill="#F69134" opacity="1.000000" stroke="none" 
	d="
M619.092041,706.405457 
	C622.575562,698.415894 625.861511,690.640808 632.461853,685.188293 
	C636.518982,681.836792 641.015991,678.940491 645.594116,676.327942 
	C648.111511,674.891296 649.175781,673.420776 649.076599,670.520081 
	C648.871704,664.528687 648.572083,658.484680 649.113770,652.535400 
	C650.188110,640.734863 657.622559,637.089294 667.789612,639.540649 
	C672.755676,640.737976 675.915833,645.537781 675.996948,650.776794 
	C676.071777,655.607788 676.131531,660.444458 675.977112,665.271484 
	C675.886536,668.102112 676.980347,668.941345 679.756348,669.044983 
	C690.758911,669.455505 690.979858,669.337402 690.980591,658.506958 
	C690.980713,656.507507 690.977966,654.507996 690.983765,652.508545 
	C691.004761,645.264771 693.592712,641.217224 699.382812,639.365112 
	C705.697144,637.345215 712.242249,639.242310 715.286133,645.230774 
	C717.037048,648.675354 716.881897,653.120239 717.406982,657.138000 
	C717.573608,658.412537 717.192078,659.765381 717.018127,661.076660 
	C715.891907,669.565002 718.575256,674.783020 727.075989,678.934448 
	C743.172485,686.795105 751.581116,701.269775 754.876526,718.626709 
	C756.140442,725.283752 750.921204,732.273193 744.196167,733.777649 
	C737.765198,735.216187 730.355591,731.114380 728.797302,724.440857 
	C726.184204,713.250244 720.790833,704.250000 709.775391,700.086975 
	C703.981079,697.897156 697.621521,696.460938 691.449280,696.180603 
	C681.227661,695.716370 670.892273,695.048950 660.880249,698.824890 
	C649.728760,703.030518 644.022644,710.619934 644.000000,722.577881 
	C643.992126,726.738525 643.798828,730.934998 644.251404,735.053406 
	C645.585632,747.192688 653.863342,752.098572 664.658142,755.076782 
	C685.577820,760.848328 707.014648,765.369629 726.177551,776.151428 
	C746.038940,787.326233 758.791931,803.472229 757.878784,827.367920 
	C757.081116,848.241028 745.626099,863.944519 727.327148,872.875732 
	C722.875244,875.048584 720.388367,877.067566 720.896545,882.379578 
	C721.401978,887.663147 720.718628,893.052124 721.072144,898.360535 
	C721.636902,906.842651 714.101868,912.580078 707.657410,912.911804 
	C700.560791,913.277161 694.242310,906.484192 694.035400,898.507141 
	C693.914429,893.844727 693.923584,889.174561 694.041565,884.512146 
	C694.105652,881.976929 693.197876,881.053040 690.588928,880.927063 
	C678.801697,880.357910 680.098633,878.374268 680.003235,890.886047 
	C679.980408,893.885132 680.104736,896.889038 679.976807,899.882812 
	C679.673706,906.973694 673.120483,913.167358 666.264465,912.957153 
	C659.593262,912.752686 653.193787,906.457092 653.039124,899.681213 
	C652.890930,893.186218 652.755615,886.672363 653.093506,880.191711 
	C653.302673,876.178467 651.904053,874.414490 648.112000,873.044556 
	C632.857910,867.533813 621.623657,857.696228 617.873535,841.357422 
	C616.771973,836.558105 616.132690,830.302368 618.297058,826.376709 
	C623.258545,817.377930 635.703125,817.824829 640.730469,825.558289 
	C641.627930,826.938904 642.611572,828.500122 642.797729,830.067932 
	C643.945862,839.736694 650.043274,845.289490 658.548157,848.150635 
	C676.729065,854.266968 695.100708,855.574158 713.664490,849.274353 
	C729.016418,844.064636 738.484619,823.108032 722.851868,807.249939 
	C714.965698,799.250183 705.018799,795.344421 694.749207,792.014282 
	C677.880981,786.544373 660.687805,781.983765 644.079712,775.830627 
	C628.096985,769.909058 620.700500,756.513123 618.067566,740.354614 
	C616.243225,729.158630 616.000305,717.907532 619.092041,706.405457 
z"/>
</svg>